<svg id="visual" viewBox="0 0 900 600" width="900" height="600" xmlns="http://www.w3.org/2000/svg" xmlns:xlink="http://www.w3.org/1999/xlink" version="1.1"><rect x="0" y="0" width="900" height="600" fill="#f5f5f5"></rect><path d="M0 283L129 275L257 160L386 182L514 107L643 136L771 240L900 174L900 601L771 601L643 601L514 601L386 601L257 601L129 601L0 601Z" fill="#468c40"></path><path d="M0 212L129 263L257 191L386 242L514 229L643 284L771 342L900 256L900 601L771 601L643 601L514 601L386 601L257 601L129 601L0 601Z" fill="#357531"></path><path d="M0 278L129 379L257 347L386 378L514 365L643 301L771 296L900 297L900 601L771 601L643 601L514 601L386 601L257 601L129 601L0 601Z" fill="#245e22"></path><path d="M0 396L129 447L257 382L386 389L514 460L643 459L771 479L900 450L900 601L771 601L643 601L514 601L386 601L257 601L129 601L0 601Z" fill="#134813"></path><path d="M0 547L129 505L257 506L386 467L514 524L643 489L771 481L900 480L900 601L771 601L643 601L514 601L386 601L257 601L129 601L0 601Z" fill="#033303"></path></svg>