<svg width="246" height="176" viewBox="0 0 246 176" fill="none" xmlns="http://www.w3.org/2000/svg">
<path d="M22.368 33.36C24.288 30.416 26.688 28.112 29.568 26.448C32.448 24.72 35.648 23.856 39.168 23.856V41.232H34.656C30.56 41.232 27.488 42.128 25.44 43.92C23.392 45.648 22.368 48.72 22.368 53.136V78H5.952V24.432H22.368V33.36ZM71.3985 78.768C66.1505 78.768 61.4145 77.648 57.1905 75.408C53.0305 73.168 49.7345 69.968 47.3025 65.808C44.9345 61.648 43.7505 56.784 43.7505 51.216C43.7505 45.712 44.9665 40.88 47.3985 36.72C49.8305 32.496 53.1585 29.264 57.3825 27.024C61.6065 24.784 66.3425 23.664 71.5905 23.664C76.8385 23.664 81.5745 24.784 85.7985 27.024C90.0225 29.264 93.3505 32.496 95.7825 36.72C98.2145 40.88 99.4305 45.712 99.4305 51.216C99.4305 56.72 98.1825 61.584 95.6865 65.808C93.2545 69.968 89.8945 73.168 85.6065 75.408C81.3825 77.648 76.6465 78.768 71.3985 78.768ZM71.3985 64.56C74.5345 64.56 77.1905 63.408 79.3665 61.104C81.6065 58.8 82.7265 55.504 82.7265 51.216C82.7265 46.928 81.6385 43.632 79.4625 41.328C77.3505 39.024 74.7265 37.872 71.5905 37.872C68.3905 37.872 65.7345 39.024 63.6225 41.328C61.5105 43.568 60.4545 46.864 60.4545 51.216C60.4545 55.504 61.4785 58.8 63.5265 61.104C65.6385 63.408 68.2625 64.56 71.3985 64.56ZM158.635 50.352C158.635 51.888 158.54 53.488 158.348 55.152H121.196C121.452 58.48 122.508 61.04 124.364 62.832C126.284 64.56 128.62 65.424 131.372 65.424C135.468 65.424 138.316 63.696 139.916 60.24H157.388C156.492 63.76 154.86 66.928 152.492 69.744C150.188 72.56 147.276 74.768 143.756 76.368C140.236 77.968 136.3 78.768 131.948 78.768C126.7 78.768 122.028 77.648 117.932 75.408C113.836 73.168 110.636 69.968 108.332 65.808C106.028 61.648 104.876 56.784 104.876 51.216C104.876 45.648 105.996 40.784 108.236 36.624C110.54 32.464 113.74 29.264 117.836 27.024C121.932 24.784 126.636 23.664 131.948 23.664C137.132 23.664 141.74 24.752 145.772 26.928C149.804 29.104 152.94 32.208 155.18 36.24C157.484 40.272 158.635 44.976 158.635 50.352ZM141.836 46.032C141.836 43.216 140.876 40.976 138.956 39.312C137.036 37.648 134.636 36.816 131.756 36.816C129.004 36.816 126.668 37.616 124.748 39.216C122.892 40.816 121.74 43.088 121.292 46.032H141.836ZM22.368 120.016C23.904 117.52 26.112 115.504 28.992 113.968C31.872 112.432 35.168 111.664 38.88 111.664C43.296 111.664 47.296 112.784 50.88 115.024C54.464 117.264 57.28 120.464 59.328 124.624C61.44 128.784 62.496 133.616 62.496 139.12C62.496 144.624 61.44 149.488 59.328 153.712C57.28 157.872 54.464 161.104 50.88 163.408C47.296 165.648 43.296 166.768 38.88 166.768C35.104 166.768 31.808 166.032 28.992 164.56C26.176 163.024 23.968 161.008 22.368 158.512V166H5.952V94.96H22.368V120.016ZM45.792 139.12C45.792 135.024 44.64 131.824 42.336 129.52C40.096 127.152 37.312 125.968 33.984 125.968C30.72 125.968 27.936 127.152 25.632 129.52C23.392 131.888 22.272 135.12 22.272 139.216C22.272 143.312 23.392 146.544 25.632 148.912C27.936 151.28 30.72 152.464 33.984 152.464C37.248 152.464 40.032 151.28 42.336 148.912C44.64 146.48 45.792 143.216 45.792 139.12ZM79.3643 106.864C76.4843 106.864 74.1163 106.032 72.2603 104.368C70.4683 102.64 69.5723 100.528 69.5723 98.032C69.5723 95.472 70.4683 93.36 72.2603 91.696C74.1163 89.968 76.4843 89.104 79.3643 89.104C82.1803 89.104 84.4843 89.968 86.2763 91.696C88.1323 93.36 89.0603 95.472 89.0603 98.032C89.0603 100.528 88.1323 102.64 86.2763 104.368C84.4843 106.032 82.1803 106.864 79.3643 106.864ZM87.5243 112.432V166H71.1083V112.432H87.5243ZM149.917 138.352C149.917 139.888 149.821 141.488 149.629 143.152H112.477C112.733 146.48 113.789 149.04 115.645 150.832C117.565 152.56 119.901 153.424 122.653 153.424C126.749 153.424 129.597 151.696 131.197 148.24H148.669C147.773 151.76 146.141 154.928 143.773 157.744C141.469 160.56 138.557 162.768 135.037 164.368C131.517 165.968 127.581 166.768 123.229 166.768C117.981 166.768 113.309 165.648 109.213 163.408C105.117 161.168 101.917 157.968 99.6128 153.808C97.3088 149.648 96.1568 144.784 96.1568 139.216C96.1568 133.648 97.2768 128.784 99.5168 124.624C101.821 120.464 105.021 117.264 109.117 115.024C113.213 112.784 117.917 111.664 123.229 111.664C128.413 111.664 133.021 112.752 137.053 114.928C141.085 117.104 144.221 120.208 146.461 124.24C148.765 128.272 149.917 132.976 149.917 138.352ZM133.117 134.032C133.117 131.216 132.157 128.976 130.237 127.312C128.317 125.648 125.917 124.816 123.037 124.816C120.285 124.816 117.949 125.616 116.029 127.216C114.173 128.816 113.021 131.088 112.573 134.032H133.117ZM191.217 111.856C197.489 111.856 202.481 113.904 206.193 118C209.969 122.032 211.857 127.6 211.857 134.704V166H195.537V136.912C195.537 133.328 194.609 130.544 192.753 128.56C190.897 126.576 188.401 125.584 185.265 125.584C182.129 125.584 179.633 126.576 177.777 128.56C175.921 130.544 174.993 133.328 174.993 136.912V166H158.577V112.432H174.993V119.536C176.657 117.168 178.897 115.312 181.713 113.968C184.529 112.56 187.697 111.856 191.217 111.856Z" fill="white"/>
<path d="M175.845 41.3396L196.502 47.0258C197.042 47.1744 197.312 47.2487 197.499 47.4366C197.687 47.6245 197.759 47.8929 197.904 48.4299L203.456 68.98C204.105 71.3817 204.429 72.5826 205.153 72.6241C205.877 72.6656 206.338 71.5098 207.261 69.1983L226.199 21.7663C226.924 19.9511 227.286 19.0435 226.824 18.5808C226.362 18.1181 225.444 18.4699 223.609 19.1736L175.658 37.561C173.321 38.4571 172.153 38.9052 172.188 39.6239C172.224 40.3427 173.431 40.675 175.845 41.3396Z" fill="#15803d"/>
</svg>
