<svg width="390" height="161" viewBox="0 0 390 161" fill="none" xmlns="http://www.w3.org/2000/svg">
<path d="M149.483 111.537L149.527 89.0355H152.257L173.922 63.3636H195.455L166.348 97.358H161.901L149.483 111.537ZM132.486 131V40.8182H151.244V131H132.486ZM174.759 131L154.855 101.541L167.361 88.2869L196.732 131H174.759ZM217.328 156.364C214.951 156.364 212.72 156.173 210.635 155.791C208.58 155.439 206.878 154.984 205.527 154.426L209.755 140.423C211.956 141.098 213.938 141.465 215.699 141.524C217.49 141.583 219.031 141.172 220.323 140.291C221.644 139.411 222.715 137.913 223.537 135.8L224.638 132.938L200.375 63.3636H220.103L234.105 113.034H234.81L248.945 63.3636H268.804L242.516 138.31C241.254 141.95 239.536 145.12 237.364 147.821C235.221 150.551 232.506 152.65 229.218 154.118C225.93 155.615 221.967 156.364 217.328 156.364ZM295.874 132.277C291.559 132.277 287.713 131.528 284.337 130.031C280.961 128.505 278.29 126.259 276.323 123.294C274.386 120.3 273.417 116.571 273.417 112.109C273.417 108.352 274.107 105.196 275.487 102.642C276.866 100.088 278.745 98.0331 281.123 96.4773C283.501 94.9214 286.201 93.7472 289.225 92.9545C292.278 92.1619 295.478 91.6042 298.825 91.2812C302.758 90.8703 305.929 90.4886 308.336 90.1364C310.743 89.7547 312.49 89.197 313.576 88.4631C314.662 87.7292 315.205 86.643 315.205 85.2045V84.9403C315.205 82.1515 314.325 79.9938 312.563 78.4673C310.831 76.9408 308.365 76.1776 305.165 76.1776C301.79 76.1776 299.103 76.9261 297.107 78.4233C295.111 79.8911 293.79 81.7405 293.144 83.9716L275.795 82.5625C276.675 78.4526 278.407 74.9006 280.991 71.9062C283.574 68.8826 286.906 66.5634 290.987 64.9489C295.096 63.3049 299.852 62.483 305.254 62.483C309.011 62.483 312.607 62.9233 316.042 63.804C319.506 64.6847 322.574 66.0497 325.245 67.8991C327.946 69.7486 330.074 72.1264 331.63 75.0327C333.186 77.9096 333.964 81.3589 333.964 85.3807V131H316.174V121.621H315.646C314.559 123.734 313.106 125.598 311.286 127.213C309.466 128.798 307.279 130.046 304.725 130.956C302.171 131.837 299.221 132.277 295.874 132.277ZM301.246 119.331C304.006 119.331 306.442 118.788 308.556 117.702C310.67 116.586 312.328 115.089 313.532 113.21C314.736 111.331 315.337 109.203 315.337 106.825V99.6477C314.75 100.029 313.943 100.382 312.915 100.705C311.917 100.998 310.787 101.277 309.525 101.541C308.263 101.776 307 101.996 305.738 102.202C304.476 102.378 303.331 102.539 302.303 102.686C300.102 103.009 298.179 103.523 296.535 104.227C294.891 104.932 293.614 105.886 292.704 107.089C291.794 108.264 291.339 109.732 291.339 111.493C291.339 114.047 292.263 115.999 294.113 117.349C295.992 118.67 298.37 119.331 301.246 119.331ZM384.493 63.3636V77.4545H343.761V63.3636H384.493ZM353.009 47.1591H371.767V110.216C371.767 111.948 372.031 113.298 372.56 114.267C373.088 115.206 373.822 115.867 374.761 116.249C375.73 116.63 376.846 116.821 378.108 116.821C378.989 116.821 379.869 116.748 380.75 116.601C381.631 116.425 382.306 116.293 382.776 116.205L385.726 130.163C384.786 130.457 383.465 130.795 381.763 131.176C380.06 131.587 377.991 131.837 375.554 131.925C371.033 132.101 367.07 131.499 363.665 130.119C360.289 128.74 357.661 126.597 355.783 123.69C353.904 120.784 352.979 117.115 353.009 112.682V47.1591Z" fill="black"/>
<path d="M115.717 121.875L74.4956 23.9344C73.7967 22.3686 72.7202 21.0532 71.3879 20.137C70.0556 19.2208 68.5208 18.7403 66.9572 18.7501C65.3936 18.7598 63.8637 19.2594 62.5406 20.1922C61.2175 21.125 60.1542 22.4538 59.4709 24.0281L18.2826 121.875H8.375V131.25H125.625V121.875H115.717ZM66.9581 28.0265L87.7156 77.3437L79.5625 83.4281L67 74.0531L54.4375 83.4281L46.2509 77.3203L66.9581 28.0265ZM42.6497 85.8984L54.4375 94.6969L67 85.3219L79.5625 94.6969L91.3294 85.9172L106.455 121.875H27.5328L42.6497 85.8984Z" fill="green"/>
</svg>
